<?xml version="1.0" encoding="UTF-8" standalone="no"?>
<!-- Created with Inkscape (http://www.inkscape.org/) -->

<svg
   version="1.1"
   id="svg1"
   width="60.472"
   height="90.708"
   viewBox="0 0 60.472 90.708001"
   sodipodi:docname="ESRB 2013 Early Childhood Spanish.svg"
   inkscape:version="1.3.2 (091e20ef0f, 2023-11-25)"
   inkscape:export-filename="ESRB 2013 Rating Pending Spanish.svg"
   inkscape:export-xdpi="96"
   inkscape:export-ydpi="96"
   xmlns:inkscape="http://www.inkscape.org/namespaces/inkscape"
   xmlns:sodipodi="http://sodipodi.sourceforge.net/DTD/sodipodi-0.dtd"
   xmlns="http://www.w3.org/2000/svg"
   xmlns:svg="http://www.w3.org/2000/svg">
  <defs
     id="defs1">
    <clipPath
       clipPathUnits="userSpaceOnUse"
       id="clipPath23">
      <path
         d="M 0,0 H 708.661 V 481.89 H 0 Z"
         transform="translate(-167.3626,-205.86651)"
         id="path23" />
    </clipPath>
    <clipPath
       clipPathUnits="userSpaceOnUse"
       id="clipPath25">
      <path
         d="M 0,0 H 708.661 V 481.89 H 0 Z"
         transform="translate(-175.50381,-205.08531)"
         id="path25" />
    </clipPath>
    <clipPath
       clipPathUnits="userSpaceOnUse"
       id="clipPath27">
      <path
         d="M 0,0 H 708.661 V 481.89 H 0 Z"
         transform="translate(-186.4627,-206.18101)"
         id="path27" />
    </clipPath>
    <clipPath
       clipPathUnits="userSpaceOnUse"
       id="clipPath29">
      <path
         d="M 0,0 H 708.661 V 481.89 H 0 Z"
         transform="translate(-189.24111,-212.5609)"
         id="path29" />
    </clipPath>
    <clipPath
       clipPathUnits="userSpaceOnUse"
       id="clipPath33">
      <path
         d="M 0,0 H 708.661 V 481.89 H 0 Z"
         transform="translate(-159.6796,-256.1155)"
         id="path33" />
    </clipPath>
    <clipPath
       clipPathUnits="userSpaceOnUse"
       id="clipPath37">
      <path
         d="M 0,0 H 708.661 V 481.89 H 0 Z"
         transform="translate(-168.5521,-256.0129)"
         id="path37" />
    </clipPath>
    <clipPath
       clipPathUnits="userSpaceOnUse"
       id="clipPath42">
      <path
         d="M 0,0 H 708.661 V 481.89 H 0 Z"
         transform="translate(-176.6952,-262.32351)"
         id="path42" />
    </clipPath>
    <clipPath
       clipPathUnits="userSpaceOnUse"
       id="clipPath45">
      <path
         d="M 0,0 H 708.661 V 481.89 H 0 Z"
         transform="translate(-183.9031,-256.0129)"
         id="path45" />
    </clipPath>
    <clipPath
       clipPathUnits="userSpaceOnUse"
       id="clipPath47">
      <path
         d="M 0,0 H 708.661 V 481.89 H 0 Z"
         transform="translate(-186.91881,-256.0129)"
         id="path47" />
    </clipPath>
    <clipPath
       clipPathUnits="userSpaceOnUse"
       id="clipPath49">
      <path
         d="M 0,0 H 708.661 V 481.89 H 0 Z"
         transform="translate(-188.75481,-262.32351)"
         id="path49" />
    </clipPath>
    <clipPath
       clipPathUnits="userSpaceOnUse"
       id="clipPath51">
      <path
         d="M 0,0 H 708.661 V 481.89 H 0 Z"
         transform="translate(-161.23611,-225.60781)"
         id="path51" />
    </clipPath>
    <clipPath
       clipPathUnits="userSpaceOnUse"
       id="clipPath53">
      <path
         d="M 0,0 H 708.661 V 481.89 H 0 Z"
         transform="translate(-188.31231,-227.6869)"
         id="path53" />
    </clipPath>
    <clipPath
       clipPathUnits="userSpaceOnUse"
       id="clipPath55">
      <path
         d="M 0,0 H 708.661 V 481.89 H 0 Z"
         transform="translate(-163.78161,-213.91341)"
         id="path55" />
    </clipPath>
    <clipPath
       clipPathUnits="userSpaceOnUse"
       id="clipPath60">
      <path
         d="M 0,0 H 708.661 V 481.89 H 0 Z"
         transform="translate(-160.4763,-255.4066)"
         id="path60" />
    </clipPath>
    <clipPath
       clipPathUnits="userSpaceOnUse"
       id="clipPath62">
      <path
         d="M 0,0 H 708.661 V 481.89 H 0 Z"
         transform="translate(-162.7714,-247.723)"
         id="path62" />
    </clipPath>
    <clipPath
       clipPathUnits="userSpaceOnUse"
       id="clipPath64">
      <path
         d="M 0,0 H 708.661 V 481.89 H 0 Z"
         transform="translate(-166.87671,-249.52081)"
         id="path64" />
    </clipPath>
    <clipPath
       clipPathUnits="userSpaceOnUse"
       id="clipPath66">
      <path
         d="M 0,0 H 708.661 V 481.89 H 0 Z"
         transform="translate(-168.53931,-254.03551)"
         id="path66" />
    </clipPath>
    <clipPath
       clipPathUnits="userSpaceOnUse"
       id="clipPath69">
      <path
         d="M 0,0 H 708.661 V 481.89 H 0 Z"
         transform="translate(-176.5731,-247.82541)"
         id="path69" />
    </clipPath>
    <clipPath
       clipPathUnits="userSpaceOnUse"
       id="clipPath71">
      <path
         d="M 0,0 H 708.661 V 481.89 H 0 Z"
         transform="translate(-179.36301,-254.03551)"
         id="path71" />
    </clipPath>
    <clipPath
       clipPathUnits="userSpaceOnUse"
       id="clipPath75">
      <path
         d="M 0,0 H 708.661 V 481.89 H 0 Z"
         transform="translate(-184.76541,-255.4066)"
         id="path75" />
    </clipPath>
    <clipPath
       clipPathUnits="userSpaceOnUse"
       id="clipPath77">
      <path
         d="M 0,0 H 708.661 V 481.89 H 0 Z"
         transform="translate(-187.06041,-247.723)"
         id="path77" />
    </clipPath>
    <clipPath
       clipPathUnits="userSpaceOnUse"
       id="clipPath79">
      <path
         d="M 0,0 H 708.661 V 481.89 H 0 Z"
         transform="translate(-191.1649,-249.52081)"
         id="path79" />
    </clipPath>
  </defs>
  <sodipodi:namedview
     id="namedview1"
     pagecolor="#ffffff"
     bordercolor="#000000"
     borderopacity="0.25"
     inkscape:showpageshadow="2"
     inkscape:pageopacity="0.0"
     inkscape:pagecheckerboard="0"
     inkscape:deskcolor="#d1d1d1"
     inkscape:zoom="1.383759"
     inkscape:cx="14.453384"
     inkscape:cy="124.2991"
     inkscape:window-width="1280"
     inkscape:window-height="717"
     inkscape:window-x="0"
     inkscape:window-y="0"
     inkscape:window-maximized="1"
     inkscape:current-layer="g1" />
  <g
     id="g1"
     inkscape:groupmode="layer"
     inkscape:label="38"
     transform="translate(-199.51466,-286.24401)">
    <path
       id="path17"
       d="m 149.965,266.855 h 44.696 v -67.328 h -44.696 z"
       style="fill:#231f20;fill-opacity:1;fill-rule:nonzero;stroke:none"
       transform="matrix(1.3333333,0,0,-1.3333333,0,642.52)" />
    <path
       id="path18"
       d="m 194.332,199.878 h -44.037 v 66.625 h 44.037 z m 0.658,67.329 h -0.658 -44.037 -0.659 v -0.704 -66.625 -0.702 h 0.659 44.037 0.658 v 0.702 66.625 z"
       style="fill:#ffffff;fill-opacity:1;fill-rule:nonzero;stroke:none"
       transform="matrix(1.3333333,0,0,-1.3333333,0,642.52)" />
    <path
       id="path19"
       d="m 192.237,264.409 h -39.876 v -18.668 h 39.876 z"
       style="fill:#ffffff;fill-opacity:1;fill-rule:nonzero;stroke:none"
       transform="matrix(1.3333333,0,0,-1.3333333,0,642.52)" />
    <path
       id="path20"
       d="m 152.361,243.698 h 39.88 v -34.172 h -39.88 z"
       style="fill:#ffffff;fill-opacity:1;fill-rule:nonzero;stroke:none"
       transform="matrix(1.3333333,0,0,-1.3333333,0,642.52)" />
    <path
       id="path21"
       d="M 0,0 V 5.483 H 8.006 V 4.201 H 3.216 V 3.417 H 7.27 V 2.138 H 3.216 V 1.278 H 8.192 V 0 Z"
       style="fill:#ffffff;fill-opacity:1;fill-rule:nonzero;stroke:none"
       transform="matrix(1.3333333,0,0,-1.3333333,203.15733,373.21373)" />
    <path
       id="path22"
       d="m 0,0 c -0.051,0.185 -0.231,0.304 -0.465,0.37 -0.228,0.07 -0.512,0.103 -0.83,0.103 -0.708,0 -1.024,-0.117 -1.024,-0.322 0,-0.81 5.646,-0.301 5.646,-2.295 0,-1.269 -1.898,-1.89 -4.595,-1.89 -2.59,0 -4.28,0.845 -4.348,1.835 h 3.079 c 0.07,-0.197 0.261,-0.339 0.534,-0.431 0.258,-0.092 0.596,-0.139 0.915,-0.139 0.804,0 1.338,0.143 1.338,0.402 0,0.832 -5.649,0.262 -5.649,2.351 0,1.165 1.801,1.749 4.256,1.749 2.724,0 3.966,-0.775 4.201,-1.733 z"
       style="fill:#ffffff;fill-opacity:1;fill-rule:nonzero;stroke:none"
       transform="matrix(1.3333333,0,0,-1.3333333,223.15013,368.03133)"
       clip-path="url(#clipPath23)" />
    <path
       id="path24"
       d="M 0,0 H 1.268 C 2.263,0 2.796,0.146 2.796,0.522 2.796,0.908 2.251,1.096 1.5,1.096 H 0 Z m 0,-1.194 v -1.912 h -3.215 v 5.484 h 4.634 c 3.271,0 4.348,-0.502 4.348,-1.567 0,-0.634 -0.501,-1.162 -1.646,-1.345 1.032,-0.208 1.661,-0.339 1.661,-1.445 0,-0.713 -0.043,-0.96 0.34,-0.96 V -3.106 H 2.861 C 2.781,-2.982 2.7,-2.632 2.7,-2.147 c 0,0.72 -0.219,0.953 -1.717,0.953 z"
       style="fill:#ffffff;fill-opacity:1;fill-rule:nonzero;stroke:none"
       transform="matrix(1.3333333,0,0,-1.3333333,234.00507,369.07293)"
       clip-path="url(#clipPath25)" />
    <path
       id="path26"
       d="m 0,0 v -0.919 h 1.34 c 0.641,0 1.107,0.167 1.107,0.48 C 2.447,-0.011 1.812,0 1.138,0 Z m 0,-1.911 v -1.012 h 1.403 c 0.798,0 1.396,0.094 1.396,0.503 0,0.479 -0.747,0.509 -1.778,0.509 z m -3.214,-2.29 v 5.483 h 4.692 c 2.21,0 3.967,-0.298 3.967,-1.383 0,-0.566 -0.655,-0.977 -1.281,-1.19 1.063,-0.155 1.632,-0.668 1.632,-1.256 0,-1.222 -1.673,-1.654 -4.226,-1.654 z"
       style="fill:#ffffff;fill-opacity:1;fill-rule:nonzero;stroke:none"
       transform="matrix(1.3333333,0,0,-1.3333333,248.61693,367.612)"
       clip-path="url(#clipPath27)" />
    <path
       id="path28"
       d="M 0,0 C 0.322,0.008 0.4,0.141 0.4,0.291 0.4,0.445 0.322,0.529 0.046,0.529 H -0.367 V 0 Z m -0.367,-0.324 v -0.883 h -0.345 v 2.061 h 0.717 c 0.405,0 0.819,-0.106 0.819,-0.571 0,-0.236 -0.148,-0.428 -0.444,-0.484 v -0.006 c 0.299,-0.055 0.339,-0.188 0.373,-0.408 0.032,-0.194 0.055,-0.408 0.13,-0.592 h -0.44 c -0.026,0.113 -0.059,0.25 -0.072,0.367 -0.023,0.178 -0.023,0.346 -0.125,0.44 -0.088,0.076 -0.203,0.066 -0.323,0.076 z m 1.944,0.119 c 0,0.795 -0.687,1.437 -1.541,1.437 -0.859,0 -1.556,-0.642 -1.556,-1.437 0,-0.795 0.697,-1.445 1.556,-1.445 0.854,0 1.541,0.65 1.541,1.445 m -3.429,0 c 0,0.965 0.837,1.748 1.888,1.748 1.036,0 1.873,-0.783 1.873,-1.748 0,-0.969 -0.837,-1.752 -1.873,-1.752 -1.051,0 -1.888,0.783 -1.888,1.752"
       style="fill:#231f20;fill-opacity:1;fill-rule:nonzero;stroke:none"
       transform="matrix(1.3333333,0,0,-1.3333333,252.32147,359.10547)"
       clip-path="url(#clipPath29)" />
    <path
       id="path30"
       d="M 0,0 V 6.208 H 1.944 V 5.253 h -1.2 V 3.724 H 1.851 V 2.768 H 0.744 V 0.954 H 1.983 V 0 Z"
       style="fill:#231f20;fill-opacity:1;fill-rule:nonzero;stroke:none"
       transform="matrix(1.3333333,0,0,-1.3333333,204.62213,301.03267)" />
    <path
       id="path31"
       d="M 0,0 0.987,6.208 H 1.969 L 2.937,0 H 2.151 L 1.955,1.376 H 0.938 L 0.736,0 Z M 1.437,5.013 H 1.426 L 1.086,2.33 h 0.71 z"
       style="fill:#231f20;fill-opacity:1;fill-rule:nonzero;stroke:none"
       transform="matrix(1.3333333,0,0,-1.3333333,207.5492,301.03267)" />
    <path
       id="path32"
       d="M 0,0 H -0.746 V 6.208 H 0.632 C 0.888,6.208 1.091,6.07 1.241,5.796 1.391,5.521 1.465,5.116 1.465,4.583 1.465,4.186 1.415,3.852 1.315,3.577 1.214,3.302 1.044,3.13 0.804,3.061 V 3.044 C 0.844,3.032 0.899,3.015 0.972,2.991 1.044,2.969 1.116,2.917 1.186,2.837 1.257,2.757 1.319,2.638 1.371,2.48 1.424,2.323 1.451,2.104 1.451,1.823 1.451,1.726 1.451,1.587 1.453,1.41 1.455,1.232 1.459,1.049 1.465,0.86 1.472,0.671 1.481,0.496 1.494,0.335 1.504,0.175 1.517,0.064 1.535,0 H 0.804 C 0.754,0.189 0.729,0.387 0.727,0.593 0.725,0.8 0.725,1.003 0.725,1.204 0.725,1.388 0.724,1.561 0.723,1.728 0.721,1.893 0.705,2.039 0.674,2.163 0.643,2.286 0.589,2.385 0.516,2.459 0.442,2.534 0.334,2.571 0.192,2.571 H 0 Z m 0,3.525 h 0.33 c 0.073,0 0.134,0.029 0.184,0.085 0.048,0.058 0.088,0.131 0.118,0.221 0.029,0.088 0.049,0.187 0.061,0.296 0.012,0.108 0.016,0.212 0.016,0.309 0,0.298 -0.033,0.508 -0.1,0.633 C 0.542,5.192 0.449,5.253 0.33,5.253 H 0 Z"
       style="fill:#231f20;fill-opacity:1;fill-rule:nonzero;stroke:none"
       transform="matrix(1.3333333,0,0,-1.3333333,212.90613,301.03267)"
       clip-path="url(#clipPath33)" />
    <path
       id="path34"
       d="M 0,0 V 6.208 H 0.746 V 1.032 H 1.861 V 0 Z"
       style="fill:#231f20;fill-opacity:1;fill-rule:nonzero;stroke:none"
       transform="matrix(1.3333333,0,0,-1.3333333,215.59613,301.03267)" />
    <path
       id="path35"
       d="m 0,0 -0.933,4.059 h 0.815 L 0.415,1.435 0.982,4.059 H 1.741 L 0.745,0 V -2.149 H 0 Z"
       style="fill:#231f20;fill-opacity:1;fill-rule:nonzero;stroke:none"
       transform="matrix(1.3333333,0,0,-1.3333333,218.90013,298.16667)" />
    <path
       id="path36"
       d="m 0,0 c -0.306,0 -0.544,0.09 -0.711,0.271 -0.167,0.18 -0.29,0.42 -0.365,0.721 -0.075,0.301 -0.119,0.644 -0.133,1.028 -0.013,0.384 -0.02,0.779 -0.02,1.187 0,0.412 0.007,0.811 0.02,1.194 0.014,0.384 0.058,0.726 0.133,1.024 0.075,0.298 0.198,0.538 0.365,0.718 0.167,0.18 0.405,0.271 0.711,0.271 0.382,0 0.654,-0.178 0.816,-0.529 C 0.978,5.532 1.053,5.021 1.037,4.35 H 0.306 C 0.306,4.763 0.282,5.055 0.237,5.227 0.191,5.398 0.111,5.484 0,5.484 -0.106,5.484 -0.189,5.441 -0.251,5.352 -0.314,5.263 -0.363,5.127 -0.394,4.943 -0.428,4.76 -0.45,4.523 -0.459,4.233 -0.469,3.944 -0.475,3.602 -0.475,3.207 c 0,-0.396 0.006,-0.738 0.016,-1.028 0.009,-0.29 0.031,-0.527 0.065,-0.71 C -0.363,1.285 -0.314,1.15 -0.251,1.062 -0.189,0.973 -0.106,0.928 0,0.928 c 0.086,0 0.15,0.043 0.197,0.129 0.046,0.086 0.078,0.192 0.098,0.318 0.02,0.126 0.032,0.264 0.035,0.413 0.003,0.149 0.007,0.283 0.01,0.403 H 1.076 C 1.076,1.779 1.053,1.433 1.007,1.151 0.961,0.871 0.892,0.645 0.799,0.473 0.707,0.301 0.595,0.179 0.461,0.108 0.328,0.035 0.174,0 0,0"
       style="fill:#231f20;fill-opacity:1;fill-rule:nonzero;stroke:none"
       transform="matrix(1.3333333,0,0,-1.3333333,224.73613,301.16947)"
       clip-path="url(#clipPath37)" />
    <path
       id="path38"
       d="M 0,0 V 2.484 H 0.746 V -3.724 H 0 v 2.769 h -0.854 v -2.769 h -0.745 v 6.208 h 0.745 V 0 Z"
       style="fill:#231f20;fill-opacity:1;fill-rule:nonzero;stroke:none"
       transform="matrix(1.3333333,0,0,-1.3333333,228.96733,296.06787)" />
    <path
       id="path39"
       d="m 173.116,256.116 h 0.745 v 6.208 h -0.745 z"
       style="fill:#231f20;fill-opacity:1;fill-rule:nonzero;stroke:none"
       transform="matrix(1.3333333,0,0,-1.3333333,0,642.52)" />
    <path
       id="path40"
       d="M 0,0 V 6.208 H 0.746 V 1.032 H 1.861 V 0 Z"
       style="fill:#231f20;fill-opacity:1;fill-rule:nonzero;stroke:none"
       transform="matrix(1.3333333,0,0,-1.3333333,232.65733,301.03267)" />
    <path
       id="path41"
       d="m 0,0 h 1.243 c 0.243,0 0.441,-0.068 0.592,-0.207 0.15,-0.137 0.268,-0.338 0.353,-0.602 0.084,-0.263 0.14,-0.586 0.169,-0.966 0.031,-0.382 0.045,-0.813 0.045,-1.295 v -0.563 c 0,-0.215 -0.007,-0.44 -0.024,-0.675 C 2.361,-4.543 2.331,-4.773 2.286,-5 2.242,-5.227 2.176,-5.429 2.087,-5.607 1.997,-5.783 1.883,-5.929 1.74,-6.04 1.601,-6.152 1.424,-6.208 1.213,-6.208 H 0 Z m 0.743,-5.254 h 0.361 c 0.112,0 0.203,0.039 0.275,0.116 0.07,0.077 0.125,0.202 0.165,0.374 0.04,0.172 0.066,0.395 0.082,0.666 0.014,0.273 0.02,0.604 0.02,0.995 0,0.286 -10e-4,0.558 -0.006,0.816 -0.006,0.258 -0.024,0.485 -0.056,0.684 -0.033,0.197 -0.086,0.355 -0.156,0.472 -0.072,0.117 -0.17,0.176 -0.299,0.176 H 0.743 Z"
       style="fill:#231f20;fill-opacity:1;fill-rule:nonzero;stroke:none"
       transform="matrix(1.3333333,0,0,-1.3333333,235.5936,292.75533)"
       clip-path="url(#clipPath42)" />
    <path
       id="path43"
       d="M 0,0 V 2.484 H 0.746 V -3.724 H 0 v 2.769 h -0.853 v -2.769 h -0.745 v 6.208 h 0.745 V 0 Z"
       style="fill:#231f20;fill-opacity:1;fill-rule:nonzero;stroke:none"
       transform="matrix(1.3333333,0,0,-1.3333333,241.75747,296.06787)" />
    <path
       id="path44"
       d="M 0,0 C -0.306,0 -0.542,0.09 -0.709,0.271 -0.878,0.451 -1,0.691 -1.073,0.992 -1.149,1.293 -1.194,1.636 -1.208,2.02 c -0.014,0.384 -0.02,0.779 -0.02,1.187 0,0.412 0.006,0.811 0.02,1.194 0.014,0.384 0.059,0.726 0.135,1.024 C -1,5.723 -0.878,5.963 -0.709,6.143 -0.542,6.323 -0.306,6.414 0,6.414 0.308,6.414 0.545,6.323 0.712,6.143 0.88,5.963 1.001,5.723 1.077,5.425 1.153,5.127 1.197,4.785 1.211,4.401 1.224,4.018 1.23,3.619 1.23,3.207 1.23,2.799 1.224,2.404 1.211,2.02 1.197,1.636 1.153,1.293 1.077,0.992 1.001,0.691 0.88,0.451 0.712,0.271 0.545,0.09 0.308,0 0,0 m 0,0.928 c 0.106,0 0.19,0.045 0.254,0.134 C 0.315,1.15 0.363,1.285 0.396,1.469 0.43,1.652 0.45,1.889 0.461,2.179 0.47,2.469 0.476,2.811 0.476,3.207 0.476,3.602 0.47,3.944 0.461,4.233 0.45,4.523 0.43,4.76 0.396,4.943 0.363,5.127 0.315,5.263 0.254,5.352 0.19,5.441 0.106,5.484 0,5.484 -0.103,5.484 -0.187,5.441 -0.25,5.352 -0.313,5.263 -0.361,5.127 -0.393,4.943 -0.427,4.76 -0.447,4.523 -0.458,4.233 -0.468,3.944 -0.473,3.602 -0.473,3.207 c 0,-0.396 0.005,-0.738 0.015,-1.028 0.011,-0.29 0.031,-0.527 0.065,-0.71 C -0.361,1.285 -0.313,1.15 -0.25,1.062 -0.187,0.973 -0.103,0.928 0,0.928"
       style="fill:#231f20;fill-opacity:1;fill-rule:nonzero;stroke:none"
       transform="matrix(1.3333333,0,0,-1.3333333,245.20413,301.16947)"
       clip-path="url(#clipPath45)" />
    <path
       id="path46"
       d="m 0,0 c -0.306,0 -0.542,0.09 -0.71,0.271 -0.168,0.18 -0.29,0.42 -0.365,0.721 -0.075,0.301 -0.12,0.644 -0.134,1.028 -0.013,0.384 -0.019,0.779 -0.019,1.187 0,0.412 0.006,0.811 0.019,1.194 0.014,0.384 0.059,0.726 0.134,1.024 C -1,5.723 -0.878,5.963 -0.71,6.143 -0.542,6.323 -0.306,6.414 0,6.414 0.307,6.414 0.543,6.323 0.711,6.143 0.878,5.963 1,5.723 1.076,5.425 1.151,5.127 1.196,4.785 1.21,4.401 1.222,4.018 1.228,3.619 1.228,3.207 1.228,2.799 1.222,2.404 1.21,2.02 1.196,1.636 1.151,1.293 1.076,0.992 1,0.691 0.878,0.451 0.711,0.271 0.543,0.09 0.307,0 0,0 m 0,0.928 c 0.106,0 0.189,0.045 0.252,0.134 0.062,0.088 0.111,0.223 0.143,0.407 0.034,0.183 0.055,0.42 0.065,0.71 0.009,0.29 0.015,0.632 0.015,1.028 0,0.395 -0.006,0.737 -0.015,1.026 C 0.45,4.523 0.429,4.76 0.395,4.943 0.363,5.127 0.314,5.263 0.252,5.352 0.189,5.441 0.106,5.484 0,5.484 -0.105,5.484 -0.189,5.441 -0.251,5.352 -0.314,5.263 -0.361,5.127 -0.395,4.943 -0.428,4.76 -0.449,4.523 -0.459,4.233 -0.47,3.944 -0.474,3.602 -0.474,3.207 c 0,-0.396 0.004,-0.738 0.015,-1.028 0.01,-0.29 0.031,-0.527 0.064,-0.71 C -0.361,1.285 -0.314,1.15 -0.251,1.062 -0.189,0.973 -0.105,0.928 0,0.928"
       style="fill:#231f20;fill-opacity:1;fill-rule:nonzero;stroke:none"
       transform="matrix(1.3333333,0,0,-1.3333333,249.22507,301.16947)"
       clip-path="url(#clipPath47)" />
    <path
       id="path48"
       d="m 0,0 h 1.244 c 0.243,0 0.44,-0.068 0.591,-0.207 0.151,-0.137 0.269,-0.338 0.354,-0.602 0.083,-0.263 0.14,-0.586 0.169,-0.966 0.031,-0.382 0.045,-0.813 0.045,-1.295 v -0.563 c 0,-0.215 -0.008,-0.44 -0.024,-0.675 C 2.362,-4.543 2.332,-4.773 2.287,-5 2.242,-5.227 2.177,-5.429 2.088,-5.607 1.998,-5.783 1.884,-5.929 1.741,-6.04 1.6,-6.152 1.425,-6.208 1.214,-6.208 H 0 Z m 0.744,-5.254 h 0.361 c 0.112,0 0.203,0.039 0.275,0.116 0.07,0.077 0.125,0.202 0.165,0.374 0.04,0.172 0.065,0.395 0.081,0.666 0.015,0.273 0.021,0.604 0.021,0.995 0,0.286 -0.002,0.558 -0.006,0.816 -0.006,0.258 -0.025,0.485 -0.056,0.684 -0.033,0.197 -0.086,0.355 -0.156,0.472 -0.072,0.117 -0.17,0.176 -0.299,0.176 H 0.744 Z"
       style="fill:#231f20;fill-opacity:1;fill-rule:nonzero;stroke:none"
       transform="matrix(1.3333333,0,0,-1.3333333,251.67307,292.75533)"
       clip-path="url(#clipPath49)" />
    <path
       id="path50"
       d="m 0,0 c 0.087,-0.794 0.214,-1.602 0.42,-2.429 0.167,-0.686 0.378,-1.339 0.597,-1.965 l 3.049,0.882 C 3.533,-1.137 2.182,0.458 0,0"
       style="fill:#231f20;fill-opacity:1;fill-rule:nonzero;stroke:none"
       transform="matrix(1.3333333,0,0,-1.3333333,214.98147,341.7096)"
       clip-path="url(#clipPath51)" />
    <path
       id="path52"
       d="m 0,0 -8.099,-2.355 c 0.313,-2.641 -0.498,-4.964 -3.207,-5.752 -4.286,-1.251 -5.939,2.027 -6.853,5.752 -1.266,5.125 -0.131,8.262 2.834,9.125 2.64,0.761 4.708,-0.331 5.644,-3.024 l 7.997,2.328 c -2.363,6.625 -7.751,9.364 -15.6,7.08 -5.857,-1.701 -9.806,-6.667 -9.912,-13.103 3.598,0.698 5.94,-1.544 6.909,-5.453 l 0.342,-1.384 -5.324,-1.543 c 0.766,-1.559 1.722,-2.864 2.845,-3.911 0.312,0.609 0.413,1.376 0.3,2.391 l 2.583,0.751 c 0.237,-1.838 -0.175,-3.356 -1.072,-4.514 2.965,-1.804 6.749,-2.195 11.053,-0.942 C -2.777,-12.585 0.95,-7.068 0,0"
       style="fill:#231f20;fill-opacity:1;fill-rule:nonzero;stroke:none"
       transform="matrix(1.3333333,0,0,-1.3333333,251.08307,338.93747)"
       clip-path="url(#clipPath53)" />
    <path
       id="path54"
       d="m 0,0 c -2.508,-0.731 -4.104,1.678 -4.56,4.331 l 3.824,1.113 c -0.29,0.584 -0.553,1.204 -0.792,1.857 L -5.043,6.279 c -0.598,2.425 0.131,4.746 2.169,5.338 0.113,0.034 0.223,0.057 0.329,0.077 -0.08,0.724 -0.132,1.445 -0.121,2.13 -0.169,-0.03 -0.35,-0.068 -0.529,-0.111 -4.108,-1.199 -5.121,-5.383 -4.054,-9.72 1.081,-4.359 3.563,-7.254 7.725,-6.042 1.462,0.425 2.643,1.181 3.441,2.21 C 3.276,0.553 2.671,1.014 2.107,1.533 1.732,0.79 1.049,0.302 0,0"
       style="fill:#231f20;fill-opacity:1;fill-rule:nonzero;stroke:none"
       transform="matrix(1.3333333,0,0,-1.3333333,218.37547,357.30213)"
       clip-path="url(#clipPath55)" />
    <path
       id="path56"
       d="M 0,0 V 6.21 H 1.025 L 1.99,1.91 H 2 v 4.3 H 2.709 V 0 H 1.708 L 0.718,4.541 H 0.708 V 0 Z"
       style="fill:#231f20;fill-opacity:1;fill-rule:nonzero;stroke:none"
       transform="matrix(1.3333333,0,0,-1.3333333,204.61373,312.08613)" />
    <path
       id="path57"
       d="m 156.807,247.826 h 0.758 v 6.21 h -0.758 z"
       style="fill:#231f20;fill-opacity:1;fill-rule:nonzero;stroke:none"
       transform="matrix(1.3333333,0,0,-1.3333333,0,642.52)" />
    <path
       id="path58"
       d="M 0,0 V 6.21 H 1.024 L 1.989,1.91 H 2 v 4.3 H 2.709 V 0 H 1.708 L 0.718,4.541 H 0.708 V 0 Z"
       style="fill:#231f20;fill-opacity:1;fill-rule:nonzero;stroke:none"
       transform="matrix(1.3333333,0,0,-1.3333333,210.94573,312.08613)" />
    <path
       id="path59"
       d="m 0,0 c -0.013,-0.132 -0.034,-0.259 -0.058,-0.378 -0.025,-0.121 -0.06,-0.23 -0.103,-0.328 -0.04,-0.097 -0.091,-0.184 -0.151,-0.262 -0.06,-0.077 -0.132,-0.115 -0.216,-0.115 -0.07,0 -0.139,0.018 -0.206,0.055 -0.067,0.037 -0.132,0.085 -0.196,0.142 -0.064,0.057 -0.125,0.102 -0.183,0.133 -0.058,0.031 -0.115,0.047 -0.168,0.047 -0.064,0 -0.111,-0.039 -0.138,-0.119 -0.029,-0.08 -0.049,-0.167 -0.059,-0.258 h -0.295 c 0.009,0.113 0.027,0.236 0.051,0.365 0.026,0.129 0.06,0.246 0.103,0.352 0.044,0.107 0.098,0.194 0.159,0.263 0.062,0.069 0.132,0.103 0.209,0.103 0.073,0 0.144,-0.026 0.211,-0.077 0.067,-0.052 0.13,-0.102 0.19,-0.147 0.06,-0.046 0.119,-0.088 0.172,-0.129 0.053,-0.041 0.1,-0.06 0.14,-0.06 0.071,0 0.125,0.036 0.163,0.107 0.039,0.073 0.062,0.174 0.068,0.306 z"
       style="fill:#231f20;fill-opacity:1;fill-rule:nonzero;stroke:none"
       transform="matrix(1.3333333,0,0,-1.3333333,213.9684,301.97787)"
       clip-path="url(#clipPath60)" />
    <path
       id="path61"
       d="m 0,0 c -0.312,0 -0.553,0.091 -0.724,0.27 -0.17,0.181 -0.295,0.422 -0.371,0.723 -0.078,0.301 -0.123,0.644 -0.137,1.027 -0.012,0.385 -0.019,0.781 -0.019,1.188 0,0.412 0.007,0.811 0.019,1.195 0.014,0.385 0.059,0.725 0.137,1.024 0.076,0.298 0.201,0.537 0.371,0.718 0.171,0.18 0.412,0.27 0.724,0.27 0.311,0 0.553,-0.09 0.723,-0.27 C 0.895,5.964 1.018,5.725 1.096,5.427 1.172,5.128 1.218,4.788 1.231,4.403 1.245,4.019 1.251,3.62 1.251,3.208 1.251,2.801 1.245,2.405 1.231,2.02 1.218,1.637 1.172,1.294 1.096,0.993 1.018,0.692 0.895,0.451 0.723,0.27 0.553,0.091 0.311,0 0,0 m 0,0.929 c 0.107,0 0.192,0.045 0.257,0.132 0.062,0.09 0.111,0.225 0.145,0.409 0.033,0.183 0.055,0.42 0.064,0.71 0.011,0.29 0.016,0.631 0.016,1.028 0,0.395 -0.005,0.738 -0.016,1.027 C 0.457,4.524 0.435,4.762 0.402,4.945 0.368,5.128 0.319,5.265 0.257,5.353 0.192,5.442 0.107,5.487 0,5.487 -0.107,5.487 -0.192,5.442 -0.256,5.353 -0.32,5.265 -0.368,5.128 -0.401,4.945 -0.436,4.762 -0.457,4.524 -0.468,4.235 -0.477,3.946 -0.483,3.603 -0.483,3.208 -0.483,2.811 -0.477,2.47 -0.468,2.18 -0.457,1.89 -0.436,1.653 -0.401,1.47 -0.368,1.286 -0.32,1.151 -0.256,1.061 -0.192,0.974 -0.107,0.929 0,0.929"
       style="fill:#231f20;fill-opacity:1;fill-rule:nonzero;stroke:none"
       transform="matrix(1.3333333,0,0,-1.3333333,217.02853,312.22267)"
       clip-path="url(#clipPath62)" />
    <path
       id="path63"
       d="m 0,0 c 0,-0.402 -0.039,-0.722 -0.115,-0.959 -0.078,-0.238 -0.177,-0.419 -0.299,-0.542 -0.122,-0.124 -0.26,-0.204 -0.41,-0.241 -0.151,-0.037 -0.299,-0.056 -0.442,-0.056 -0.235,0 -0.426,0.054 -0.571,0.163 -0.145,0.11 -0.256,0.257 -0.334,0.444 -0.076,0.185 -0.127,0.4 -0.15,0.644 -0.024,0.244 -0.031,0.5 -0.02,0.77 h 0.759 c 0,-0.149 0.002,-0.289 0.008,-0.421 0.007,-0.132 0.025,-0.248 0.052,-0.349 0.026,-0.099 0.068,-0.18 0.127,-0.236 0.059,-0.057 0.141,-0.086 0.244,-0.086 0.127,0 0.223,0.064 0.286,0.193 0.064,0.129 0.097,0.3 0.097,0.512 0,0.184 -0.038,0.344 -0.114,0.481 -0.076,0.138 -0.17,0.269 -0.283,0.392 -0.114,0.123 -0.237,0.246 -0.369,0.37 -0.129,0.123 -0.252,0.267 -0.365,0.431 -0.114,0.162 -0.209,0.353 -0.285,0.571 -0.075,0.218 -0.112,0.482 -0.112,0.791 0,0.241 0.018,0.468 0.058,0.68 0.038,0.212 0.102,0.397 0.192,0.553 0.091,0.159 0.214,0.284 0.367,0.375 0.155,0.092 0.347,0.137 0.578,0.137 0.368,0 0.643,-0.148 0.822,-0.446 0.18,-0.298 0.258,-0.772 0.234,-1.419 h -0.739 c 0,0.114 -0.005,0.227 -0.013,0.34 -0.008,0.111 -0.025,0.212 -0.05,0.301 -0.025,0.088 -0.06,0.16 -0.106,0.214 -0.045,0.055 -0.106,0.082 -0.183,0.082 -0.123,0 -0.22,-0.056 -0.288,-0.168 C -1.493,3.41 -1.528,3.245 -1.528,3.027 -1.528,2.832 -1.49,2.666 -1.415,2.528 -1.339,2.391 -1.245,2.265 -1.131,2.15 -1.017,2.035 -0.895,1.919 -0.764,1.801 -0.633,1.684 -0.511,1.546 -0.397,1.389 -0.283,1.23 -0.188,1.041 -0.113,0.82 -0.038,0.6 0,0.326 0,0"
       style="fill:#231f20;fill-opacity:1;fill-rule:nonzero;stroke:none"
       transform="matrix(1.3333333,0,0,-1.3333333,222.50227,309.8256)"
       clip-path="url(#clipPath64)" />
    <path
       id="path65"
       d="M 0,0 H 1.367 C 1.542,0 1.689,-0.043 1.812,-0.128 1.934,-0.215 2.033,-0.34 2.11,-0.503 2.188,-0.666 2.244,-0.862 2.279,-1.093 2.313,-1.321 2.331,-1.577 2.331,-1.857 2.331,-2.035 2.32,-2.23 2.299,-2.442 2.278,-2.654 2.23,-2.853 2.162,-3.036 2.09,-3.22 1.987,-3.373 1.854,-3.496 1.72,-3.619 1.543,-3.681 1.322,-3.681 H 0.759 V -6.21 H 0 Z M 0.759,-2.726 H 1.18 c 0.058,0 0.11,0.024 0.156,0.073 0.047,0.048 0.087,0.111 0.121,0.189 0.033,0.078 0.06,0.166 0.078,0.266 0.019,0.101 0.028,0.203 0.028,0.306 0,0.126 -0.006,0.246 -0.017,0.362 -0.012,0.114 -0.034,0.215 -0.066,0.3 -0.032,0.086 -0.076,0.153 -0.13,0.202 -0.056,0.048 -0.125,0.074 -0.21,0.074 H 0.759 Z"
       style="fill:#231f20;fill-opacity:1;fill-rule:nonzero;stroke:none"
       transform="matrix(1.3333333,0,0,-1.3333333,224.71907,303.806)"
       clip-path="url(#clipPath66)" />
    <path
       id="path67"
       d="M 0,0 V 6.21 H 1.98 V 5.256 H 0.759 V 3.725 H 1.884 V 2.77 H 0.759 V 0.955 H 2.02 V 0 Z"
       style="fill:#231f20;fill-opacity:1;fill-rule:nonzero;stroke:none"
       transform="matrix(1.3333333,0,0,-1.3333333,228.438,312.08613)" />
    <path
       id="path68"
       d="m 0,0 h -1.07 c -0.033,0 -0.067,-0.002 -0.105,-0.008 -0.036,-0.006 -0.074,-0.012 -0.111,-0.017 -0.035,-0.012 -0.073,-0.02 -0.11,-0.026 -0.038,-0.006 -0.074,-0.009 -0.112,-0.009 -0.28,0 -0.504,0.064 -0.67,0.189 -0.166,0.127 -0.292,0.32 -0.379,0.581 -0.086,0.261 -0.144,0.591 -0.171,0.989 -0.026,0.399 -0.039,0.867 -0.039,1.406 0,0.413 0.007,0.811 0.02,1.196 0.014,0.385 0.058,0.724 0.136,1.023 0.076,0.298 0.201,0.537 0.371,0.718 0.171,0.181 0.412,0.27 0.723,0.27 0.313,0 0.554,-0.089 0.723,-0.27 0.173,-0.181 0.295,-0.42 0.373,-0.718 0.078,-0.299 0.123,-0.638 0.136,-1.023 0.013,-0.385 0.02,-0.783 0.02,-1.196 0,-0.332 -0.008,-0.622 -0.029,-0.869 C -0.312,1.99 -0.339,1.775 -0.373,1.592 -0.407,1.408 -0.454,1.25 -0.513,1.119 -0.568,0.986 -0.632,0.866 -0.706,0.758 L -0.697,0.74 c 0.027,0.012 0.058,0.031 0.095,0.057 0.036,0.025 0.074,0.049 0.108,0.072 0.035,0.024 0.069,0.043 0.101,0.061 0.032,0.017 0.057,0.025 0.077,0.025 H 0 Z m -1.517,0.869 c 0.108,0 0.194,0.045 0.257,0.133 0.063,0.09 0.112,0.225 0.146,0.404 0.034,0.182 0.054,0.412 0.064,0.694 0.011,0.28 0.016,0.615 0.016,1.005 0,0.396 -0.005,0.739 -0.016,1.028 -0.01,0.289 -0.03,0.526 -0.064,0.71 C -1.148,5.025 -1.197,5.162 -1.26,5.251 -1.323,5.34 -1.409,5.385 -1.517,5.385 -1.623,5.385 -1.71,5.34 -1.773,5.251 -1.837,5.162 -1.884,5.025 -1.918,4.843 -1.952,4.659 -1.974,4.422 -1.984,4.133 -1.994,3.844 -1.999,3.501 -1.999,3.105 c 0,-0.39 0.005,-0.725 0.015,-1.005 0.01,-0.282 0.032,-0.512 0.066,-0.694 0.034,-0.179 0.081,-0.314 0.145,-0.404 0.063,-0.088 0.15,-0.133 0.256,-0.133"
       style="fill:#231f20;fill-opacity:1;fill-rule:nonzero;stroke:none"
       transform="matrix(1.3333333,0,0,-1.3333333,235.4308,312.08613)"
       clip-path="url(#clipPath69)" />
    <path
       id="path70"
       d="m 0,0 v -4.403 c 0,-0.235 -0.02,-0.466 -0.062,-0.693 -0.041,-0.227 -0.111,-0.43 -0.205,-0.61 -0.095,-0.181 -0.223,-0.327 -0.381,-0.44 -0.158,-0.111 -0.351,-0.166 -0.583,-0.166 -0.419,0 -0.73,0.171 -0.932,0.515 -0.203,0.345 -0.303,0.809 -0.303,1.394 V 0 h 0.758 v -4.317 c 0,-0.385 0.042,-0.659 0.13,-0.822 0.084,-0.163 0.198,-0.245 0.338,-0.245 0.168,0 0.288,0.092 0.366,0.276 0.078,0.183 0.116,0.447 0.116,0.791 V 0 Z"
       style="fill:#231f20;fill-opacity:1;fill-rule:nonzero;stroke:none"
       transform="matrix(1.3333333,0,0,-1.3333333,239.15067,303.806)"
       clip-path="url(#clipPath71)" />
    <path
       id="path72"
       d="M 0,0 V 6.21 H 1.978 V 5.256 H 0.759 V 3.725 H 1.882 V 2.77 H 0.759 V 0.955 h 1.26 V 0 Z"
       style="fill:#231f20;fill-opacity:1;fill-rule:nonzero;stroke:none"
       transform="matrix(1.3333333,0,0,-1.3333333,239.97507,312.08613)" />
    <path
       id="path73"
       d="M 0,0 V 6.21 H 1.025 L 1.991,1.91 H 2 v 4.3 H 2.709 V 0 h -1 L 0.721,4.541 H 0.709 V 0 Z"
       style="fill:#231f20;fill-opacity:1;fill-rule:nonzero;stroke:none"
       transform="matrix(1.3333333,0,0,-1.3333333,243.33053,312.08613)" />
    <path
       id="path74"
       d="m 0,0 c -0.014,-0.132 -0.033,-0.259 -0.057,-0.378 -0.025,-0.121 -0.06,-0.23 -0.103,-0.328 -0.04,-0.097 -0.092,-0.184 -0.151,-0.262 -0.061,-0.077 -0.132,-0.115 -0.216,-0.115 -0.07,0 -0.14,0.018 -0.206,0.055 -0.067,0.037 -0.132,0.085 -0.197,0.142 -0.062,0.057 -0.125,0.102 -0.182,0.133 -0.059,0.031 -0.116,0.047 -0.17,0.047 -0.063,0 -0.11,-0.039 -0.136,-0.119 -0.029,-0.08 -0.049,-0.167 -0.058,-0.258 h -0.296 c 0.008,0.113 0.026,0.236 0.051,0.365 0.026,0.129 0.06,0.246 0.104,0.352 0.043,0.107 0.096,0.194 0.156,0.263 C -1.398,-0.034 -1.329,0 -1.25,0 c 0.072,0 0.145,-0.026 0.211,-0.077 0.066,-0.052 0.129,-0.102 0.189,-0.147 0.061,-0.046 0.118,-0.088 0.172,-0.129 0.054,-0.041 0.101,-0.06 0.141,-0.06 0.069,0 0.125,0.036 0.163,0.107 0.038,0.073 0.061,0.174 0.069,0.306 z"
       style="fill:#231f20;fill-opacity:1;fill-rule:nonzero;stroke:none"
       transform="matrix(1.3333333,0,0,-1.3333333,246.35387,301.97787)"
       clip-path="url(#clipPath75)" />
    <path
       id="path76"
       d="m 0,0 c -0.312,0 -0.552,0.091 -0.725,0.27 -0.169,0.181 -0.294,0.422 -0.37,0.723 -0.078,0.301 -0.122,0.644 -0.136,1.027 -0.012,0.385 -0.019,0.781 -0.019,1.188 0,0.412 0.007,0.811 0.019,1.195 0.014,0.385 0.058,0.725 0.136,1.024 0.076,0.298 0.201,0.537 0.37,0.718 0.173,0.18 0.413,0.27 0.725,0.27 0.312,0 0.554,-0.09 0.723,-0.27 C 0.895,5.964 1.018,5.725 1.096,5.427 1.174,5.128 1.219,4.788 1.231,4.403 1.245,4.019 1.252,3.62 1.252,3.208 1.252,2.801 1.245,2.405 1.231,2.02 1.219,1.637 1.174,1.294 1.096,0.993 1.018,0.692 0.895,0.451 0.723,0.27 0.554,0.091 0.312,0 0,0 m 0,0.929 c 0.107,0 0.193,0.045 0.257,0.132 0.062,0.09 0.112,0.225 0.145,0.409 0.034,0.183 0.055,0.42 0.065,0.71 0.011,0.29 0.015,0.631 0.015,1.028 0,0.395 -0.004,0.738 -0.015,1.027 C 0.457,4.524 0.436,4.762 0.402,4.945 0.369,5.128 0.319,5.265 0.257,5.353 0.193,5.442 0.107,5.487 0,5.487 -0.106,5.487 -0.193,5.442 -0.256,5.353 -0.32,5.265 -0.367,5.128 -0.401,4.945 -0.435,4.762 -0.457,4.524 -0.468,4.235 -0.478,3.946 -0.481,3.603 -0.481,3.208 -0.481,2.811 -0.478,2.47 -0.468,2.18 -0.457,1.89 -0.435,1.653 -0.401,1.47 -0.367,1.286 -0.32,1.151 -0.256,1.061 -0.193,0.974 -0.106,0.929 0,0.929"
       style="fill:#231f20;fill-opacity:1;fill-rule:nonzero;stroke:none"
       transform="matrix(1.3333333,0,0,-1.3333333,249.41387,312.22267)"
       clip-path="url(#clipPath77)" />
    <path
       id="path78"
       d="m 0,0 c 0,-0.402 -0.038,-0.722 -0.114,-0.959 -0.077,-0.238 -0.178,-0.419 -0.298,-0.542 -0.123,-0.124 -0.259,-0.204 -0.411,-0.241 -0.152,-0.037 -0.298,-0.056 -0.442,-0.056 -0.234,0 -0.425,0.054 -0.57,0.163 -0.145,0.11 -0.257,0.257 -0.335,0.444 -0.075,0.185 -0.127,0.4 -0.149,0.644 -0.025,0.244 -0.032,0.5 -0.021,0.77 h 0.759 c 0,-0.149 0.003,-0.289 0.009,-0.421 0.007,-0.132 0.025,-0.248 0.05,-0.349 0.028,-0.099 0.07,-0.18 0.129,-0.236 0.06,-0.057 0.139,-0.086 0.245,-0.086 0.126,0 0.22,0.064 0.286,0.193 0.061,0.129 0.094,0.3 0.094,0.512 0,0.184 -0.038,0.344 -0.113,0.481 -0.076,0.138 -0.17,0.269 -0.283,0.392 -0.114,0.123 -0.236,0.246 -0.368,0.37 -0.129,0.123 -0.251,0.267 -0.366,0.431 -0.113,0.162 -0.209,0.353 -0.284,0.571 -0.075,0.218 -0.113,0.482 -0.113,0.791 0,0.241 0.021,0.468 0.058,0.68 0.038,0.212 0.102,0.397 0.194,0.553 0.089,0.159 0.212,0.284 0.366,0.375 0.154,0.092 0.346,0.137 0.578,0.137 0.368,0 0.642,-0.148 0.821,-0.446 0.179,-0.298 0.258,-0.772 0.233,-1.419 h -0.738 c 0,0.114 -0.004,0.227 -0.013,0.34 -0.007,0.111 -0.025,0.212 -0.049,0.301 -0.024,0.088 -0.06,0.16 -0.105,0.214 -0.047,0.055 -0.108,0.082 -0.185,0.082 -0.123,0 -0.219,-0.056 -0.288,-0.168 C -1.492,3.41 -1.525,3.245 -1.525,3.027 -1.525,2.832 -1.49,2.666 -1.414,2.528 -1.338,2.391 -1.244,2.265 -1.128,2.15 -1.015,2.035 -0.893,1.919 -0.763,1.801 -0.631,1.684 -0.511,1.546 -0.397,1.389 -0.281,1.23 -0.186,1.041 -0.111,0.82 -0.035,0.6 0,0.326 0,0"
       style="fill:#231f20;fill-opacity:1;fill-rule:nonzero;stroke:none"
       transform="matrix(1.3333333,0,0,-1.3333333,254.88653,309.8256)"
       clip-path="url(#clipPath79)" />
  </g>
</svg>
